<?xml version="1.0" encoding="utf-8"?>
<!-- Generator: Adobe Illustrator 21.1.0, SVG Export Plug-In . SVG Version: 6.00 Build 0)  -->
<svg version="1.1" id="Layer_1" xmlns="http://www.w3.org/2000/svg" xmlns:xlink="http://www.w3.org/1999/xlink" x="0px" y="0px"
	 viewBox="0 0 33 47" style="enable-background:new 0 0 33 47;" xml:space="preserve" width="33" height="47">
<style type="text/css">
	.st0{fill:#5E5A5A;}
	.st1{fill:none;stroke:#000000;stroke-miterlimit:10;}
	.st2{fill:none;}
</style>
<path class="st0" d="M27,6c1.5,1.7,2.7,4.3,2,5c-0.3,0.3-0.7,0.1-2,0c0,0-1.3,0-4,0c-1.8,0-3.7,0-5.5,0c-3.5,0-7,0-10.5,0
	c-1.3,0-2,0-2,0c-0.7,0-0.9,0.1-1,0c-0.5-0.4,0.7-2.9,2-4.5C9.8,1.8,17,2,17.5,2C18.5,2,23.8,2.2,27,6z"/>
<path d="M16.6,45.2c-0.3,0-0.6-0.2-0.8-0.4c-0.6-0.9-14-21.2-14-29.1c0-8.2,6.6-14.8,14.8-14.8s14.8,6.6,14.8,14.8
	c0,7.8-13.4,28.2-14,29.1C17.3,45,16.9,45.2,16.6,45.2z M16.6,2.8C9.5,2.8,3.8,8.6,3.8,15.6c0,6.2,9.8,22,12.8,26.7
	c3-4.6,12.8-20.5,12.8-26.7C29.4,8.6,23.7,2.8,16.6,2.8z"/>
<path class="st1" d="M24.5,29.5"/>
<path class="st1" d="M5,23c0,2.2,4.9,4,11,4"/>
<path class="st1" d="M28,23c0,2.2-5.4,4-12,4"/>
<line class="st1" x1="3.5" y1="11" x2="29.5" y2="11"/>
<line class="st1" x1="4" y1="19" x2="29.5" y2="19"/>
<path class="st1" d="M15.5,38.5"/>
<line class="st2" x1="6" y1="25" x2="28" y2="25"/>
<path d="M16.5,43L6,25c2.1,0.9,5.8,2.1,10.5,2.1c2.3,0,6.2-0.3,10.5-2.1L16.5,43z"/>
</svg>
